<svg xmlns="http://www.w3.org/2000/svg" viewBox="0 0 430 240">
<defs>
  <radialGradient id="sBg" cx="50%" cy="45%" r="65%"><stop offset="0%" stop-color="#120830" stop-opacity=".92"/><stop offset="100%" stop-color="#050510"/></radialGradient>
  <radialGradient id="sLBrain" cx="58%" cy="45%" r="45%"><stop offset="0%" stop-color="#00eeff" stop-opacity=".95"/><stop offset="38%" stop-color="#0088dd" stop-opacity=".55"/><stop offset="75%" stop-color="#0044aa" stop-opacity=".18"/><stop offset="100%" stop-opacity="0"/></radialGradient>
  <radialGradient id="sRBrain" cx="42%" cy="45%" r="45%"><stop offset="0%" stop-color="#ffaa44" stop-opacity=".95"/><stop offset="38%" stop-color="#ee5511" stop-opacity=".55"/><stop offset="75%" stop-color="#cc2200" stop-opacity=".18"/><stop offset="100%" stop-opacity="0"/></radialGradient>
  <clipPath id="sLClip"><path d="M 93,215 L 93,175 C 86,154 83,133 82,110 C 81,87 84,65 93,50 C 102,36 116,27 132,24 C 148,21 165,28 173,43 C 180,57 179,74 177,85 C 174,95 169,100 170,108 C 172,116 173,121 171,127 C 165,134 160,139 155,148 C 149,157 145,168 143,180 C 141,190 141,200 141,215 Z"/></clipPath>
  <clipPath id="sRClip"><path d="M 337,215 L 337,175 C 344,154 347,133 348,110 C 349,87 346,65 337,50 C 328,36 314,27 298,24 C 282,21 265,28 257,43 C 250,57 251,74 253,85 C 256,95 261,100 260,108 C 258,116 257,121 259,127 C 265,134 270,139 275,148 C 281,157 285,168 287,180 C 289,190 289,200 289,215 Z"/></clipPath>
  <filter id="sGlow"><feGaussianBlur stdDeviation="3" result="b"/><feMerge><feMergeNode in="b"/><feMergeNode in="SourceGraphic"/></feMerge></filter>
  <filter id="sBigBloom"><feGaussianBlur stdDeviation="18"/></filter>
  <filter id="sMedBloom"><feGaussianBlur stdDeviation="10"/></filter>
  <filter id="sSg"><feGaussianBlur stdDeviation="1.5" result="b"/><feMerge><feMergeNode in="b"/><feMergeNode in="SourceGraphic"/></feMerge></filter>
  <linearGradient id="sFade" x1="0" y1=".76" x2="0" y2="1"><stop offset="0%" stop-color="#050510" stop-opacity="0"/><stop offset="100%" stop-color="#050510"/></linearGradient>
  <linearGradient id="sLFill" x1="0%" y1="0%" x2="100%" y2="0%"><stop offset="0%" stop-color="#071525"/><stop offset="100%" stop-color="#0b1c30"/></linearGradient>
  <linearGradient id="sRFill" x1="100%" y1="0%" x2="0%" y2="0%"><stop offset="0%" stop-color="#1c0808"/><stop offset="100%" stop-color="#200d10"/></linearGradient>
</defs>

<rect width="430" height="240" fill="#050510"/>
<rect width="430" height="240" fill="url(#sBg)"/>

<!-- Bloom lights -->
<ellipse cx="215" cy="95" rx="128" ry="72" fill="#7C5CFC" filter="url(#sBigBloom)" opacity=".05"><animate attributeName="opacity" values=".03;.08;.03" dur="5s" repeatCount="indefinite"/></ellipse>
<ellipse cx="112" cy="82" rx="75" ry="58" fill="#0077ee" filter="url(#sBigBloom)" opacity=".09"><animate attributeName="opacity" values=".06;.14;.06" dur="4s" repeatCount="indefinite"/></ellipse>
<ellipse cx="318" cy="82" rx="75" ry="58" fill="#ff6622" filter="url(#sBigBloom)" opacity=".09"><animate attributeName="opacity" values=".06;.14;.06" dur="4.5s" repeatCount="indefinite"/></ellipse>

<!-- Stars -->
<g opacity=".8">
  <circle cx="28" cy="22" r=".6" fill="#fff"><animate attributeName="opacity" values=".1;.85;.1" dur="3s" repeatCount="indefinite"/></circle>
  <circle cx="55" cy="12" r=".5" fill="#aabbff"><animate attributeName="opacity" values=".1;.7;.1" dur="2.5s" repeatCount="indefinite"/></circle>
  <circle cx="18" cy="52" r=".7" fill="#fff"><animate attributeName="opacity" values=".08;.65;.08" dur="4s" repeatCount="indefinite"/></circle>
  <circle cx="70" cy="38" r=".4" fill="#00aaff"><animate attributeName="opacity" values=".1;.7;.1" dur="2.8s" repeatCount="indefinite"/></circle>
  <circle cx="193" cy="18" r=".5" fill="#c4b5fd"><animate attributeName="opacity" values=".1;.75;.1" dur="3.5s" repeatCount="indefinite"/></circle>
  <circle cx="215" cy="8" r=".6" fill="#fff"><animate attributeName="opacity" values=".08;.65;.08" dur="2.2s" repeatCount="indefinite"/></circle>
  <circle cx="237" cy="20" r=".4" fill="#aaffcc"><animate attributeName="opacity" values=".1;.65;.1" dur="3.2s" repeatCount="indefinite"/></circle>
  <circle cx="362" cy="16" r=".6" fill="#fff"><animate attributeName="opacity" values=".1;.8;.1" dur="2.6s" repeatCount="indefinite"/></circle>
  <circle cx="398" cy="32" r=".5" fill="#ffbb88"><animate attributeName="opacity" values=".08;.7;.08" dur="3.8s" repeatCount="indefinite"/></circle>
  <circle cx="412" cy="14" r=".4" fill="#ff9944"><animate attributeName="opacity" values=".1;.6;.1" dur="2.4s" repeatCount="indefinite"/></circle>
  <circle cx="48" cy="118" r=".5" fill="#44aaff"><animate attributeName="opacity" values=".06;.5;.06" dur="4.5s" repeatCount="indefinite"/></circle>
  <circle cx="382" cy="108" r=".5" fill="#ff8833"><animate attributeName="opacity" values=".06;.5;.06" dur="4.2s" repeatCount="indefinite"/></circle>
  <circle cx="173" cy="13" r=".4" fill="#7C5CFC"><animate attributeName="opacity" values=".08;.55;.08" dur="3.3s" repeatCount="indefinite"/></circle>
  <circle cx="257" cy="16" r=".4" fill="#a78bfa"><animate attributeName="opacity" values=".08;.55;.08" dur="3.7s" repeatCount="indefinite"/></circle>
  <circle cx="34" cy="75" r=".5" fill="#88aaff"><animate attributeName="opacity" values=".06;.45;.06" dur="5s" repeatCount="indefinite"/></circle>
  <circle cx="396" cy="75" r=".5" fill="#ffaa66"><animate attributeName="opacity" values=".06;.45;.06" dur="4.8s" repeatCount="indefinite"/></circle>
</g>

<!-- LEFT HEAD SILHOUETTE (blue brain - user) -->
<path d="M 93,215 L 93,175 C 86,154 83,133 82,110 C 81,87 84,65 93,50 C 102,36 116,27 132,24 C 148,21 165,28 173,43 C 180,57 179,74 177,85 C 174,95 169,100 170,108 C 172,116 173,121 171,127 C 165,134 160,139 155,148 C 149,157 145,168 143,180 C 141,190 141,200 141,215 Z" fill="url(#sLFill)"/>
<!-- Blue brain glow -->
<ellipse cx="123" cy="78" rx="50" ry="44" fill="url(#sLBrain)" clip-path="url(#sLClip)"><animate attributeName="opacity" values=".75;1;.75" dur="3s" repeatCount="indefinite"/><animate attributeName="rx" values="48;52;48" dur="4s" repeatCount="indefinite"/></ellipse>
<ellipse cx="123" cy="78" rx="34" ry="30" fill="#00ccff" filter="url(#sMedBloom)" opacity=".38" clip-path="url(#sLClip)"><animate attributeName="opacity" values=".22;.48;.22" dur="2.2s" repeatCount="indefinite"/></ellipse>
<!-- Left brain wires -->
<g clip-path="url(#sLClip)" filter="url(#sSg)">
  <path d="M 123,36 Q 107,34 95,44 Q 85,53 83,67 Q 81,81 86,93 Q 91,105 102,112 Q 113,118 123,119" fill="none" stroke="#00ddff" stroke-width="1.3" opacity=".55"><animate attributeName="opacity" values=".35;.72;.35" dur="2.5s" repeatCount="indefinite"/></path>
  <path d="M 123,36 Q 140,34 152,44 Q 163,53 165,67 Q 167,81 162,93 Q 157,105 147,112 Q 135,118 123,119" fill="none" stroke="#66eeff" stroke-width="1" opacity=".42"><animate attributeName="opacity" values=".25;.58;.25" dur="3s" repeatCount="indefinite"/></path>
  <path d="M 97,50 Q 89,64 87,78 Q 86,92 90,104" stroke="#00aaff" stroke-width=".85" fill="none" opacity=".42"><animate attributeName="opacity" values=".25;.58;.25" dur="2.8s" repeatCount="indefinite"/></path>
  <path d="M 150,50 Q 158,64 160,78 Q 161,92 157,104" stroke="#33bbff" stroke-width=".85" fill="none" opacity=".42"><animate attributeName="opacity" values=".25;.58;.25" dur="3.2s" repeatCount="indefinite"/></path>
  <line x1="87" y1="68" x2="160" y2="68" stroke="#00aadd" stroke-width=".55" opacity=".32" stroke-dasharray="3 4"><animate attributeName="stroke-dashoffset" values="0;14" dur="2s" repeatCount="indefinite"/></line>
  <line x1="85" y1="82" x2="163" y2="82" stroke="#22bbee" stroke-width=".45" opacity=".26" stroke-dasharray="2 5"><animate attributeName="stroke-dashoffset" values="0;14" dur="2.5s" repeatCount="indefinite"/></line>
  <path d="M 110,40 Q 115,55 112,68" stroke="#55ddff" stroke-width=".6" fill="none" opacity=".32"/>
  <path d="M 136,40 Q 140,55 137,68" stroke="#33ccff" stroke-width=".6" fill="none" opacity=".3"/>
  <path d="M 99,95 Q 110,100 123,100 Q 136,100 148,95" stroke="#00bbff" stroke-width=".5" fill="none" opacity=".28" stroke-dasharray="2 3"><animate attributeName="stroke-dashoffset" values="0;10" dur="3s" repeatCount="indefinite"/></path>
</g>
<!-- Left synapse nodes -->
<g clip-path="url(#sLClip)" filter="url(#sGlow)">
  <circle cx="97" cy="63" r="2.2" fill="#00eeff"><animate attributeName="opacity" values=".3;1;.3" dur="1.4s" repeatCount="indefinite"/><animate attributeName="r" values="1.3;2.7;1.3" dur="1.4s" repeatCount="indefinite"/></circle>
  <circle cx="150" cy="60" r="1.9" fill="#44ffee"><animate attributeName="opacity" values=".25;.92;.25" dur="1.9s" repeatCount="indefinite"/><animate attributeName="r" values="1.1;2.3;1.1" dur="1.9s" repeatCount="indefinite"/></circle>
  <circle cx="123" cy="38" r="2.2" fill="#00ccff"><animate attributeName="opacity" values=".3;.92;.3" dur="1.2s" repeatCount="indefinite"/><animate attributeName="r" values="1.3;2.7;1.3" dur="1.2s" repeatCount="indefinite"/></circle>
  <circle cx="85" cy="87" r="1.6" fill="#0088ff"><animate attributeName="opacity" values=".2;.82;.2" dur="1.7s" repeatCount="indefinite"/></circle>
  <circle cx="161" cy="85" r="1.6" fill="#22aaff"><animate attributeName="opacity" values=".2;.82;.2" dur="2.1s" repeatCount="indefinite"/></circle>
</g>
<!-- Left head outline -->
<path d="M 93,215 L 93,175 C 86,154 83,133 82,110 C 81,87 84,65 93,50 C 102,36 116,27 132,24 C 148,21 165,28 173,43 C 180,57 179,74 177,85 C 174,95 169,100 170,108 C 172,116 173,121 171,127 C 165,134 160,139 155,148 C 149,157 145,168 143,180 C 141,190 141,200 141,215 Z" fill="none" stroke="#00aaff" stroke-width="1.3" opacity=".38" filter="url(#sGlow)"><animate attributeName="opacity" values=".22;.52;.22" dur="3s" repeatCount="indefinite"/></path>
<!-- Left face-edge bright glow -->
<path d="M 173,43 C 180,57 179,74 177,85 C 174,95 169,100 170,108 C 172,116 173,121 171,127 C 165,134 160,139 155,148" fill="none" stroke="#00ddff" stroke-width="1.8" opacity=".52" filter="url(#sGlow)"><animate attributeName="opacity" values=".32;.68;.32" dur="2.5s" repeatCount="indefinite"/></path>

<!-- RIGHT HEAD SILHOUETTE (warm brain - AI persona) -->
<path d="M 337,215 L 337,175 C 344,154 347,133 348,110 C 349,87 346,65 337,50 C 328,36 314,27 298,24 C 282,21 265,28 257,43 C 250,57 251,74 253,85 C 256,95 261,100 260,108 C 258,116 257,121 259,127 C 265,134 270,139 275,148 C 281,157 285,168 287,180 C 289,190 289,200 289,215 Z" fill="url(#sRFill)"/>
<!-- Warm brain glow -->
<ellipse cx="307" cy="78" rx="50" ry="44" fill="url(#sRBrain)" clip-path="url(#sRClip)"><animate attributeName="opacity" values=".75;1;.75" dur="3.5s" repeatCount="indefinite"/><animate attributeName="rx" values="48;52;48" dur="4.5s" repeatCount="indefinite"/></ellipse>
<ellipse cx="307" cy="78" rx="34" ry="30" fill="#ff8833" filter="url(#sMedBloom)" opacity=".38" clip-path="url(#sRClip)"><animate attributeName="opacity" values=".22;.48;.22" dur="2.7s" repeatCount="indefinite"/></ellipse>
<!-- Right brain wires -->
<g clip-path="url(#sRClip)" filter="url(#sSg)">
  <path d="M 307,36 Q 323,34 335,44 Q 345,53 347,67 Q 349,81 344,93 Q 339,105 328,112 Q 317,118 307,119" fill="none" stroke="#ff9944" stroke-width="1.3" opacity=".55"><animate attributeName="opacity" values=".35;.72;.35" dur="2.8s" repeatCount="indefinite"/></path>
  <path d="M 307,36 Q 290,34 278,44 Q 267,53 265,67 Q 263,81 268,93 Q 273,105 283,112 Q 295,118 307,119" fill="none" stroke="#ffcc66" stroke-width="1" opacity=".42"><animate attributeName="opacity" values=".25;.58;.25" dur="3.3s" repeatCount="indefinite"/></path>
  <path d="M 333,50 Q 341,64 343,78 Q 344,92 340,104" stroke="#ff7722" stroke-width=".85" fill="none" opacity=".42"><animate attributeName="opacity" values=".25;.58;.25" dur="3s" repeatCount="indefinite"/></path>
  <path d="M 280,50 Q 272,64 270,78 Q 269,92 273,104" stroke="#ffaa44" stroke-width=".85" fill="none" opacity=".42"><animate attributeName="opacity" values=".25;.58;.25" dur="2.8s" repeatCount="indefinite"/></path>
  <line x1="343" y1="68" x2="270" y2="68" stroke="#ee8833" stroke-width=".55" opacity=".32" stroke-dasharray="3 4"><animate attributeName="stroke-dashoffset" values="0;14" dur="2.2s" repeatCount="indefinite"/></line>
  <line x1="345" y1="82" x2="267" y2="82" stroke="#ff9944" stroke-width=".45" opacity=".26" stroke-dasharray="2 5"><animate attributeName="stroke-dashoffset" values="0;14" dur="2.7s" repeatCount="indefinite"/></line>
  <path d="M 320,40 Q 315,55 318,68" stroke="#ffdd66" stroke-width=".6" fill="none" opacity=".32"/>
  <path d="M 294,40 Q 290,55 293,68" stroke="#ffbb44" stroke-width=".6" fill="none" opacity=".3"/>
  <path d="M 331,95 Q 320,100 307,100 Q 294,100 282,95" stroke="#ff9933" stroke-width=".5" fill="none" opacity=".28" stroke-dasharray="2 3"><animate attributeName="stroke-dashoffset" values="0;10" dur="3s" repeatCount="indefinite"/></path>
</g>
<!-- Right synapse nodes -->
<g clip-path="url(#sRClip)" filter="url(#sGlow)">
  <circle cx="333" cy="63" r="2.2" fill="#ffdd44"><animate attributeName="opacity" values=".3;1;.3" dur="1.6s" repeatCount="indefinite"/><animate attributeName="r" values="1.3;2.7;1.3" dur="1.6s" repeatCount="indefinite"/></circle>
  <circle cx="280" cy="60" r="1.9" fill="#ff9933"><animate attributeName="opacity" values=".25;.92;.25" dur="2s" repeatCount="indefinite"/><animate attributeName="r" values="1.1;2.3;1.1" dur="2s" repeatCount="indefinite"/></circle>
  <circle cx="307" cy="38" r="2.2" fill="#ffbb44"><animate attributeName="opacity" values=".3;.92;.3" dur="1.3s" repeatCount="indefinite"/><animate attributeName="r" values="1.3;2.7;1.3" dur="1.3s" repeatCount="indefinite"/></circle>
  <circle cx="345" cy="87" r="1.6" fill="#ff7722"><animate attributeName="opacity" values=".2;.82;.2" dur="1.8s" repeatCount="indefinite"/></circle>
  <circle cx="269" cy="85" r="1.6" fill="#ffcc55"><animate attributeName="opacity" values=".2;.82;.2" dur="2.2s" repeatCount="indefinite"/></circle>
</g>
<!-- Right head outline -->
<path d="M 337,215 L 337,175 C 344,154 347,133 348,110 C 349,87 346,65 337,50 C 328,36 314,27 298,24 C 282,21 265,28 257,43 C 250,57 251,74 253,85 C 256,95 261,100 260,108 C 258,116 257,121 259,127 C 265,134 270,139 275,148 C 281,157 285,168 287,180 C 289,190 289,200 289,215 Z" fill="none" stroke="#ff8833" stroke-width="1.3" opacity=".38" filter="url(#sGlow)"><animate attributeName="opacity" values=".22;.52;.22" dur="3.5s" repeatCount="indefinite"/></path>
<!-- Right face-edge bright glow -->
<path d="M 257,43 C 250,57 251,74 253,85 C 256,95 261,100 260,108 C 258,116 257,121 259,127 C 265,134 270,139 275,148" fill="none" stroke="#ffaa55" stroke-width="1.8" opacity=".52" filter="url(#sGlow)"><animate attributeName="opacity" values=".32;.68;.32" dur="3s" repeatCount="indefinite"/></path>

<!-- NEURAL CONNECTION ARCS between the two minds -->
<g>
  <path d="M 172,75 Q 215,62 258,75" fill="none" stroke="#7799ff" stroke-width=".9" opacity="0" stroke-dasharray="3 5"><animate attributeName="opacity" values="0;.52;.52;0" dur="2.2s" repeatCount="indefinite" begin="0s"/><animate attributeName="stroke-dashoffset" values="0;22" dur="2.2s" repeatCount="indefinite" begin="0s"/></path>
  <path d="M 171,93 Q 215,80 259,93" fill="none" stroke="#aa88ff" stroke-width=".7" opacity="0" stroke-dasharray="2 5"><animate attributeName="opacity" values="0;.42;.42;0" dur="2.8s" repeatCount="indefinite" begin=".7s"/><animate attributeName="stroke-dashoffset" values="0;18" dur="2.8s" repeatCount="indefinite" begin=".7s"/></path>
  <path d="M 170,110 Q 215,98 260,110" fill="none" stroke="#E8547A" stroke-width=".6" opacity="0" stroke-dasharray="2 4"><animate attributeName="opacity" values="0;.36;.36;0" dur="3.2s" repeatCount="indefinite" begin="1.4s"/><animate attributeName="stroke-dashoffset" values="0;16" dur="3.2s" repeatCount="indefinite" begin="1.4s"/></path>
  <!-- Traveling sparks -->
  <circle r="2.2" fill="#00eeff" filter="url(#sGlow)" opacity="0">
    <animateMotion dur="2.2s" repeatCount="indefinite" begin="0s" path="M 172,75 Q 215,62 258,75"/>
    <animate attributeName="opacity" values="0;.9;.9;0" dur="2.2s" repeatCount="indefinite"/>
  </circle>
  <circle r="2.2" fill="#ffaa44" filter="url(#sGlow)" opacity="0">
    <animateMotion dur="2.8s" repeatCount="indefinite" begin="1.4s" path="M 259,93 Q 215,80 171,93"/>
    <animate attributeName="opacity" values="0;.9;.9;0" dur="2.8s" repeatCount="indefinite" begin="1.4s"/>
  </circle>
  <circle r="1.5" fill="#c4b5fd" filter="url(#sGlow)" opacity="0">
    <animateMotion dur="3.2s" repeatCount="indefinite" begin=".8s" path="M 170,110 Q 215,98 260,110"/>
    <animate attributeName="opacity" values="0;.7;.7;0" dur="3.2s" repeatCount="indefinite" begin=".8s"/>
  </circle>
</g>

<!-- CHAT BUBBLES (user typing, persona responding) -->
<rect x="177" y="130" width="58" height="27" rx="12" fill="#101e35" stroke="#0077cc" stroke-width=".7" opacity=".88"><animate attributeName="opacity" values=".68;.95;.68" dur="2s" repeatCount="indefinite"/></rect>
<polygon points="177,143 166,149 177,152" fill="#101e35" opacity=".85"/>
<circle cx="191" cy="143" r="2.6" fill="#00aaff" opacity=".8"><animate attributeName="opacity" values=".4;1;.4" dur=".95s" repeatCount="indefinite"/></circle>
<circle cx="203" cy="143" r="2.6" fill="#22bbff" opacity=".8"><animate attributeName="opacity" values=".4;1;.4" dur=".95s" repeatCount="indefinite" begin=".28s"/></circle>
<circle cx="215" cy="143" r="2.6" fill="#44ccff" opacity=".8"><animate attributeName="opacity" values=".4;1;.4" dur=".95s" repeatCount="indefinite" begin=".56s"/></circle>

<rect x="195" y="162" width="58" height="27" rx="12" fill="#25100a" stroke="#cc6622" stroke-width=".7" opacity=".88"><animate attributeName="opacity" values=".62;.92;.62" dur="2.5s" repeatCount="indefinite"/></rect>
<polygon points="253,175 264,181 253,178" fill="#25100a" opacity=".85"/>
<circle cx="209" cy="175" r="2.6" fill="#ff9933" opacity=".8"><animate attributeName="opacity" values=".4;1;.4" dur="1.05s" repeatCount="indefinite" begin=".32s"/></circle>
<circle cx="221" cy="175" r="2.6" fill="#ffaa44" opacity=".8"><animate attributeName="opacity" values=".4;1;.4" dur="1.05s" repeatCount="indefinite" begin=".6s"/></circle>
<circle cx="233" cy="175" r="2.6" fill="#ffbb55" opacity=".8"><animate attributeName="opacity" values=".4;1;.4" dur="1.05s" repeatCount="indefinite" begin=".88s"/></circle>

<!-- Floating particles center -->
<g filter="url(#sGlow)">
  <circle cx="215" cy="52" r="1.4" fill="#c4b5fd"><animate attributeName="opacity" values=".2;.82;.2" dur="2s" repeatCount="indefinite"/></circle>
  <circle cx="204" cy="70" r="1.1" fill="#00ddff"><animate attributeName="opacity" values=".15;.72;.15" dur="2.5s" repeatCount="indefinite"/></circle>
  <circle cx="226" cy="68" r="1.1" fill="#ff9944"><animate attributeName="opacity" values=".15;.72;.15" dur="2.2s" repeatCount="indefinite"/></circle>
  <circle cx="215" cy="113" r=".9" fill="#E8547A"><animate attributeName="opacity" values=".2;.62;.2" dur="1.8s" repeatCount="indefinite"/></circle>
  <circle cx="215" cy="86" r="1.1" fill="#ffffff"><animate attributeName="opacity" values=".1;.52;.1" dur="3s" repeatCount="indefinite"/></circle>
  <circle cx="200" cy="48" r=".9" fill="#aabbff"><animate attributeName="opacity" values=".1;.62;.1" dur="3.5s" repeatCount="indefinite"/></circle>
  <circle cx="230" cy="50" r=".9" fill="#ffcc88"><animate attributeName="opacity" values=".1;.62;.1" dur="2.8s" repeatCount="indefinite"/></circle>
</g>

<rect x="0" y="178" width="430" height="62" fill="url(#sFade)"/>
</svg>
