<svg xmlns="http://www.w3.org/2000/svg" viewBox="0 0 430 240">
<defs>
  <radialGradient id="aBg" cx="50%" cy="42%" r="65%"><stop offset="0%" stop-color="#0a0a28" stop-opacity=".95"/><stop offset="100%" stop-color="#050510"/></radialGradient>
  <radialGradient id="aLBrain" cx="55%" cy="44%" r="44%"><stop offset="0%" stop-color="#00ffcc" stop-opacity=".9"/><stop offset="38%" stop-color="#00aaaa" stop-opacity=".52"/><stop offset="75%" stop-color="#006688" stop-opacity=".15"/><stop offset="100%" stop-opacity="0"/></radialGradient>
  <radialGradient id="aRBrain" cx="45%" cy="44%" r="44%"><stop offset="0%" stop-color="#aa88ff" stop-opacity=".9"/><stop offset="38%" stop-color="#7C5CFC" stop-opacity=".52"/><stop offset="75%" stop-color="#4422cc" stop-opacity=".15"/><stop offset="100%" stop-opacity="0"/></radialGradient>
  <clipPath id="aLClip"><path d="M 68,215 L 68,175 C 62,155 59,133 58,110 C 57,87 60,65 69,49 C 79,34 93,25 110,22 C 127,19 144,26 153,41 C 161,56 160,73 157,84 C 154,95 149,100 150,108 C 152,117 153,122 151,128 C 145,136 139,141 134,150 C 128,159 124,170 122,183 C 120,193 120,204 120,215 Z"/></clipPath>
  <clipPath id="aRClip"><path d="M 362,215 L 362,175 C 368,155 371,133 372,110 C 373,87 370,65 361,49 C 351,34 337,25 320,22 C 303,19 286,26 277,41 C 269,56 270,73 273,84 C 276,95 281,100 280,108 C 278,117 277,122 279,128 C 285,136 291,141 296,150 C 302,159 306,170 308,183 C 310,193 310,204 310,215 Z"/></clipPath>
  <filter id="aGlow"><feGaussianBlur stdDeviation="3" result="b"/><feMerge><feMergeNode in="b"/><feMergeNode in="SourceGraphic"/></feMerge></filter>
  <filter id="aBigBloom"><feGaussianBlur stdDeviation="16"/></filter>
  <filter id="aMedBloom"><feGaussianBlur stdDeviation="9"/></filter>
  <filter id="aSg"><feGaussianBlur stdDeviation="1.5" result="b"/><feMerge><feMergeNode in="b"/><feMergeNode in="SourceGraphic"/></feMerge></filter>
  <linearGradient id="aFade" x1="0" y1=".76" x2="0" y2="1"><stop offset="0%" stop-color="#050510" stop-opacity="0"/><stop offset="100%" stop-color="#050510"/></linearGradient>
  <linearGradient id="aLFill" x1="0%" y1="0%" x2="100%" y2="0%"><stop offset="0%" stop-color="#051520"/><stop offset="100%" stop-color="#091a28"/></linearGradient>
  <linearGradient id="aRFill" x1="100%" y1="0%" x2="0%" y2="0%"><stop offset="0%" stop-color="#0c0820"/><stop offset="100%" stop-color="#130d28"/></linearGradient>
  <linearGradient id="aScanGrad" x1="0%" y1="0%" x2="0%" y2="100%"><stop offset="0%" stop-color="#00ffcc" stop-opacity="0"/><stop offset="48%" stop-color="#00ffcc" stop-opacity=".35"/><stop offset="52%" stop-color="#00ffcc" stop-opacity=".35"/><stop offset="100%" stop-color="#00ffcc" stop-opacity="0"/></linearGradient>
</defs>

<rect width="430" height="240" fill="#050510"/>
<rect width="430" height="240" fill="url(#aBg)"/>

<!-- Ambient bloom -->
<ellipse cx="103" cy="82" rx="78" ry="60" fill="#00aacc" filter="url(#aBigBloom)" opacity=".08"><animate attributeName="opacity" values=".05;.13;.05" dur="4s" repeatCount="indefinite"/></ellipse>
<ellipse cx="327" cy="82" rx="78" ry="60" fill="#7C5CFC" filter="url(#aBigBloom)" opacity=".08"><animate attributeName="opacity" values=".05;.13;.05" dur="4.5s" repeatCount="indefinite"/></ellipse>
<ellipse cx="215" cy="100" rx="120" ry="70" fill="#0055aa" filter="url(#aBigBloom)" opacity=".04"><animate attributeName="opacity" values=".02;.07;.02" dur="6s" repeatCount="indefinite"/></ellipse>

<!-- Stars -->
<g opacity=".78">
  <circle cx="25" cy="20" r=".6" fill="#fff"><animate attributeName="opacity" values=".1;.82;.1" dur="3s" repeatCount="indefinite"/></circle>
  <circle cx="50" cy="10" r=".5" fill="#aaffee"><animate attributeName="opacity" values=".1;.7;.1" dur="2.5s" repeatCount="indefinite"/></circle>
  <circle cx="15" cy="50" r=".7" fill="#fff"><animate attributeName="opacity" values=".08;.62;.08" dur="4s" repeatCount="indefinite"/></circle>
  <circle cx="67" cy="36" r=".4" fill="#00ccff"><animate attributeName="opacity" values=".1;.7;.1" dur="2.8s" repeatCount="indefinite"/></circle>
  <circle cx="190" cy="14" r=".5" fill="#aaffcc"><animate attributeName="opacity" values=".1;.72;.1" dur="3.5s" repeatCount="indefinite"/></circle>
  <circle cx="215" cy="6" r=".6" fill="#fff"><animate attributeName="opacity" values=".08;.62;.08" dur="2.2s" repeatCount="indefinite"/></circle>
  <circle cx="240" cy="16" r=".4" fill="#c4b5fd"><animate attributeName="opacity" values=".1;.62;.1" dur="3.2s" repeatCount="indefinite"/></circle>
  <circle cx="365" cy="14" r=".6" fill="#fff"><animate attributeName="opacity" values=".1;.78;.1" dur="2.6s" repeatCount="indefinite"/></circle>
  <circle cx="400" cy="28" r=".5" fill="#c4b5fd"><animate attributeName="opacity" values=".08;.68;.08" dur="3.8s" repeatCount="indefinite"/></circle>
  <circle cx="415" cy="12" r=".4" fill="#7C5CFC"><animate attributeName="opacity" values=".1;.58;.1" dur="2.4s" repeatCount="indefinite"/></circle>
  <circle cx="42" cy="115" r=".5" fill="#00aacc"><animate attributeName="opacity" values=".06;.48;.06" dur="4.5s" repeatCount="indefinite"/></circle>
  <circle cx="388" cy="105" r=".5" fill="#a78bfa"><animate attributeName="opacity" values=".06;.48;.06" dur="4.2s" repeatCount="indefinite"/></circle>
</g>

<!-- LEFT HEAD SILHOUETTE (teal brain - person being analyzed) -->
<path d="M 68,215 L 68,175 C 62,155 59,133 58,110 C 57,87 60,65 69,49 C 79,34 93,25 110,22 C 127,19 144,26 153,41 C 161,56 160,73 157,84 C 154,95 149,100 150,108 C 152,117 153,122 151,128 C 145,136 139,141 134,150 C 128,159 124,170 122,183 C 120,193 120,204 120,215 Z" fill="url(#aLFill)"/>
<ellipse cx="102" cy="76" rx="50" ry="44" fill="url(#aLBrain)" clip-path="url(#aLClip)"><animate attributeName="opacity" values=".72;1;.72" dur="3.2s" repeatCount="indefinite"/><animate attributeName="rx" values="48;52;48" dur="4.2s" repeatCount="indefinite"/></ellipse>
<ellipse cx="102" cy="76" rx="34" ry="30" fill="#00ddcc" filter="url(#aMedBloom)" opacity=".38" clip-path="url(#aLClip)"><animate attributeName="opacity" values=".22;.48;.22" dur="2.4s" repeatCount="indefinite"/></ellipse>
<g clip-path="url(#aLClip)" filter="url(#aSg)">
  <path d="M 102,34 Q 86,32 74,42 Q 64,52 62,66 Q 60,80 65,92 Q 70,104 81,111 Q 92,117 102,118" fill="none" stroke="#00eebb" stroke-width="1.3" opacity=".55"><animate attributeName="opacity" values=".35;.72;.35" dur="2.6s" repeatCount="indefinite"/></path>
  <path d="M 102,34 Q 119,32 131,42 Q 141,52 143,66 Q 145,80 140,92 Q 135,104 124,111 Q 113,117 102,118" fill="none" stroke="#55ffdd" stroke-width="1" opacity=".42"><animate attributeName="opacity" values=".25;.58;.25" dur="3.1s" repeatCount="indefinite"/></path>
  <path d="M 76,48 Q 67,63 65,77 Q 64,91 69,103" stroke="#00ccaa" stroke-width=".85" fill="none" opacity=".42"><animate attributeName="opacity" values=".25;.58;.25" dur="2.9s" repeatCount="indefinite"/></path>
  <path d="M 129,48 Q 138,63 140,77 Q 141,91 136,103" stroke="#33ddcc" stroke-width=".85" fill="none" opacity=".42"><animate attributeName="opacity" values=".25;.58;.25" dur="3.3s" repeatCount="indefinite"/></path>
  <line x1="66" y1="66" x2="142" y2="66" stroke="#00aabb" stroke-width=".55" opacity=".32" stroke-dasharray="3 4"><animate attributeName="stroke-dashoffset" values="0;14" dur="2s" repeatCount="indefinite"/></line>
  <line x1="64" y1="80" x2="144" y2="80" stroke="#22bbaa" stroke-width=".45" opacity=".26" stroke-dasharray="2 5"><animate attributeName="stroke-dashoffset" values="0;14" dur="2.5s" repeatCount="indefinite"/></line>
</g>
<g clip-path="url(#aLClip)" filter="url(#aGlow)">
  <circle cx="76" cy="62" r="2.2" fill="#00ffcc"><animate attributeName="opacity" values=".3;1;.3" dur="1.4s" repeatCount="indefinite"/><animate attributeName="r" values="1.3;2.7;1.3" dur="1.4s" repeatCount="indefinite"/></circle>
  <circle cx="129" cy="58" r="1.9" fill="#44ffee"><animate attributeName="opacity" values=".25;.92;.25" dur="1.9s" repeatCount="indefinite"/><animate attributeName="r" values="1.1;2.3;1.1" dur="1.9s" repeatCount="indefinite"/></circle>
  <circle cx="102" cy="36" r="2.2" fill="#00eebb"><animate attributeName="opacity" values=".3;.92;.3" dur="1.2s" repeatCount="indefinite"/><animate attributeName="r" values="1.3;2.7;1.3" dur="1.2s" repeatCount="indefinite"/></circle>
  <circle cx="64" cy="85" r="1.6" fill="#00aacc"><animate attributeName="opacity" values=".2;.82;.2" dur="1.7s" repeatCount="indefinite"/></circle>
  <circle cx="141" cy="83" r="1.6" fill="#22ccbb"><animate attributeName="opacity" values=".2;.82;.2" dur="2.1s" repeatCount="indefinite"/></circle>
</g>
<path d="M 68,215 L 68,175 C 62,155 59,133 58,110 C 57,87 60,65 69,49 C 79,34 93,25 110,22 C 127,19 144,26 153,41 C 161,56 160,73 157,84 C 154,95 149,100 150,108 C 152,117 153,122 151,128 C 145,136 139,141 134,150 C 128,159 124,170 122,183 C 120,193 120,204 120,215 Z" fill="none" stroke="#00aacc" stroke-width="1.3" opacity=".38" filter="url(#aGlow)"><animate attributeName="opacity" values=".22;.52;.22" dur="3.2s" repeatCount="indefinite"/></path>
<path d="M 153,41 C 161,56 160,73 157,84 C 154,95 149,100 150,108 C 152,117 153,122 151,128 C 145,136 139,141 134,150" fill="none" stroke="#00ffcc" stroke-width="1.8" opacity=".55" filter="url(#aGlow)"><animate attributeName="opacity" values=".32;.7;.32" dur="2.5s" repeatCount="indefinite"/></path>
<!-- Scan beam on left head -->
<rect x="59" y="34" width="95" height="90" fill="url(#aScanGrad)" clip-path="url(#aLClip)" opacity=".4">
  <animate attributeName="y" values="30;128;30" dur="5s" repeatCount="indefinite"/>
</rect>

<!-- RIGHT HEAD SILHOUETTE (purple brain - you + AI analysis) -->
<path d="M 362,215 L 362,175 C 368,155 371,133 372,110 C 373,87 370,65 361,49 C 351,34 337,25 320,22 C 303,19 286,26 277,41 C 269,56 270,73 273,84 C 276,95 281,100 280,108 C 278,117 277,122 279,128 C 285,136 291,141 296,150 C 302,159 306,170 308,183 C 310,193 310,204 310,215 Z" fill="url(#aRFill)"/>
<ellipse cx="328" cy="76" rx="50" ry="44" fill="url(#aRBrain)" clip-path="url(#aRClip)"><animate attributeName="opacity" values=".72;1;.72" dur="3.5s" repeatCount="indefinite"/><animate attributeName="rx" values="48;52;48" dur="4.5s" repeatCount="indefinite"/></ellipse>
<ellipse cx="328" cy="76" rx="34" ry="30" fill="#9966ff" filter="url(#aMedBloom)" opacity=".38" clip-path="url(#aRClip)"><animate attributeName="opacity" values=".22;.48;.22" dur="2.7s" repeatCount="indefinite"/></ellipse>
<g clip-path="url(#aRClip)" filter="url(#aSg)">
  <path d="M 328,34 Q 344,32 356,42 Q 366,52 368,66 Q 370,80 365,92 Q 360,104 349,111 Q 338,117 328,118" fill="none" stroke="#aa88ff" stroke-width="1.3" opacity=".55"><animate attributeName="opacity" values=".35;.72;.35" dur="2.8s" repeatCount="indefinite"/></path>
  <path d="M 328,34 Q 311,32 299,42 Q 289,52 287,66 Q 285,80 290,92 Q 295,104 306,111 Q 317,117 328,118" fill="none" stroke="#cc99ff" stroke-width="1" opacity=".42"><animate attributeName="opacity" values=".25;.58;.25" dur="3.4s" repeatCount="indefinite"/></path>
  <path d="M 354,48 Q 363,63 365,77 Q 366,91 361,103" stroke="#8855ee" stroke-width=".85" fill="none" opacity=".42"><animate attributeName="opacity" values=".25;.58;.25" dur="3s" repeatCount="indefinite"/></path>
  <path d="M 301,48 Q 292,63 290,77 Q 289,91 294,103" stroke="#aa77ff" stroke-width=".85" fill="none" opacity=".42"><animate attributeName="opacity" values=".25;.58;.25" dur="2.9s" repeatCount="indefinite"/></path>
  <line x1="364" y1="66" x2="288" y2="66" stroke="#7744cc" stroke-width=".55" opacity=".32" stroke-dasharray="3 4"><animate attributeName="stroke-dashoffset" values="0;14" dur="2.2s" repeatCount="indefinite"/></line>
  <line x1="366" y1="80" x2="286" y2="80" stroke="#9966ee" stroke-width=".45" opacity=".26" stroke-dasharray="2 5"><animate attributeName="stroke-dashoffset" values="0;14" dur="2.7s" repeatCount="indefinite"/></line>
</g>
<g clip-path="url(#aRClip)" filter="url(#aGlow)">
  <circle cx="354" cy="62" r="2.2" fill="#bb99ff"><animate attributeName="opacity" values=".3;1;.3" dur="1.6s" repeatCount="indefinite"/><animate attributeName="r" values="1.3;2.7;1.3" dur="1.6s" repeatCount="indefinite"/></circle>
  <circle cx="301" cy="58" r="1.9" fill="#9966ff"><animate attributeName="opacity" values=".25;.92;.25" dur="2s" repeatCount="indefinite"/><animate attributeName="r" values="1.1;2.3;1.1" dur="2s" repeatCount="indefinite"/></circle>
  <circle cx="328" cy="36" r="2.2" fill="#aa88ff"><animate attributeName="opacity" values=".3;.92;.3" dur="1.3s" repeatCount="indefinite"/><animate attributeName="r" values="1.3;2.7;1.3" dur="1.3s" repeatCount="indefinite"/></circle>
  <circle cx="366" cy="85" r="1.6" fill="#7744dd"><animate attributeName="opacity" values=".2;.82;.2" dur="1.8s" repeatCount="indefinite"/></circle>
  <circle cx="289" cy="83" r="1.6" fill="#cc99ff"><animate attributeName="opacity" values=".2;.82;.2" dur="2.2s" repeatCount="indefinite"/></circle>
</g>
<path d="M 362,215 L 362,175 C 368,155 371,133 372,110 C 373,87 370,65 361,49 C 351,34 337,25 320,22 C 303,19 286,26 277,41 C 269,56 270,73 273,84 C 276,95 281,100 280,108 C 278,117 277,122 279,128 C 285,136 291,141 296,150 C 302,159 306,170 308,183 C 310,193 310,204 310,215 Z" fill="none" stroke="#7C5CFC" stroke-width="1.3" opacity=".38" filter="url(#aGlow)"><animate attributeName="opacity" values=".22;.52;.22" dur="3.5s" repeatCount="indefinite"/></path>
<path d="M 277,41 C 269,56 270,73 273,84 C 276,95 281,100 280,108 C 278,117 277,122 279,128 C 285,136 291,141 296,150" fill="none" stroke="#aa88ff" stroke-width="1.8" opacity=".55" filter="url(#aGlow)"><animate attributeName="opacity" values=".32;.7;.32" dur="3s" repeatCount="indefinite"/></path>

<!-- CENTER: Chat screenshot frame -->
<rect x="172" y="44" width="86" height="112" rx="10" fill="#0a0d1e" stroke="rgba(0,200,180,0.28)" stroke-width=".9"/>
<!-- Screen top bar -->
<rect x="172" y="44" width="86" height="14" rx="10" fill="#0f1228"/>
<circle cx="215" cy="51" r="2.5" fill="#00ffcc" opacity=".4"/>
<!-- Chat bubbles inside -->
<rect x="182" y="65" width="54" height="13" rx="6" fill="rgba(0,200,180,0.22)"/><line x1="186" y1="71" x2="227" y2="71" stroke="#00ccaa" stroke-width="1.2" stroke-linecap="round" opacity=".6"/>
<rect x="192" y="84" width="48" height="13" rx="6" fill="rgba(124,92,252,0.22)"/><line x1="196" y1="90" x2="231" y2="90" stroke="#9966ff" stroke-width="1.2" stroke-linecap="round" opacity=".6"/>
<rect x="182" y="103" width="44" height="13" rx="6" fill="rgba(0,200,180,0.22)"/><line x1="186" y1="109" x2="217" y2="109" stroke="#00ccaa" stroke-width="1.2" stroke-linecap="round" opacity=".6"/>
<rect x="194" y="122" width="48" height="13" rx="6" fill="rgba(124,92,252,0.22)"/><line x1="198" y1="128" x2="233" y2="128" stroke="#9966ff" stroke-width="1.2" stroke-linecap="round" opacity=".6"/>
<!-- Scan line on screenshot -->
<line x1="172" y1="90" x2="258" y2="90" stroke="#00ffcc" stroke-width=".6" opacity="0">
  <animate attributeName="y1" values="46;153;46" dur="4s" repeatCount="indefinite"/>
  <animate attributeName="y2" values="46;153;46" dur="4s" repeatCount="indefinite"/>
  <animate attributeName="opacity" values="0;.6;.6;0" dur="4s" repeatCount="indefinite"/>
</line>

<!-- Analysis beams from screenshot to right head -->
<g>
  <path d="M 258,72 Q 268,70 278,68" fill="none" stroke="#aa88ff" stroke-width=".7" opacity="0" stroke-dasharray="2 3"><animate attributeName="opacity" values="0;.6;.6;0" dur="2s" repeatCount="indefinite" begin="0s"/><animate attributeName="stroke-dashoffset" values="0;10" dur="2s" repeatCount="indefinite"/></path>
  <path d="M 258,90 Q 268,89 278,89" fill="none" stroke="#7C5CFC" stroke-width=".6" opacity="0" stroke-dasharray="2 3"><animate attributeName="opacity" values="0;.55;.55;0" dur="2.5s" repeatCount="indefinite" begin=".5s"/><animate attributeName="stroke-dashoffset" values="0;10" dur="2.5s" repeatCount="indefinite" begin=".5s"/></path>
  <path d="M 258,108 Q 268,108 278,110" fill="none" stroke="#9966ff" stroke-width=".6" opacity="0" stroke-dasharray="2 3"><animate attributeName="opacity" values="0;.5;.5;0" dur="3s" repeatCount="indefinite" begin="1s"/><animate attributeName="stroke-dashoffset" values="0;10" dur="3s" repeatCount="indefinite" begin="1s"/></path>
  <circle r="1.8" fill="#aa88ff" filter="url(#aGlow)" opacity="0">
    <animateMotion dur="1.5s" repeatCount="indefinite" begin="0s" path="M 258,80 L 278,85"/>
    <animate attributeName="opacity" values="0;.9;.9;0" dur="1.5s" repeatCount="indefinite"/>
  </circle>
  <circle r="1.6" fill="#00ffcc" filter="url(#aGlow)" opacity="0">
    <animateMotion dur="1.8s" repeatCount="indefinite" begin=".7s" path="M 172,80 L 153,85"/>
    <animate attributeName="opacity" values="0;.8;.8;0" dur="1.8s" repeatCount="indefinite" begin=".7s"/>
  </circle>
</g>

<!-- Floating particles -->
<g filter="url(#aGlow)">
  <circle cx="215" cy="30" r="1.3" fill="#00ffcc"><animate attributeName="opacity" values=".2;.8;.2" dur="2s" repeatCount="indefinite"/></circle>
  <circle cx="215" cy="164" r="1" fill="#7C5CFC"><animate attributeName="opacity" values=".2;.7;.2" dur="2.5s" repeatCount="indefinite"/></circle>
  <circle cx="164" cy="90" r=".9" fill="#00eebb"><animate attributeName="opacity" values=".15;.65;.15" dur="3s" repeatCount="indefinite"/></circle>
  <circle cx="266" cy="90" r=".9" fill="#aa88ff"><animate attributeName="opacity" values=".15;.65;.15" dur="2.8s" repeatCount="indefinite"/></circle>
  <circle cx="215" cy="38" r=".8" fill="#ffffff"><animate attributeName="opacity" values=".1;.5;.1" dur="3.5s" repeatCount="indefinite"/></circle>
</g>

<rect x="0" y="178" width="430" height="62" fill="url(#aFade)"/>
</svg>
