<svg xmlns="http://www.w3.org/2000/svg" viewBox="0 0 512 512">
  <defs>
    <linearGradient id="bg" x1="0" y1="0" x2="512" y2="512" gradientUnits="userSpaceOnUse">
      <stop offset="0%" stop-color="#1A0A2E"/>
      <stop offset="100%" stop-color="#0A0515"/>
    </linearGradient>
    <linearGradient id="g" x1="0" y1="0" x2="512" y2="512" gradientUnits="userSpaceOnUse">
      <stop offset="0%" stop-color="#FF006E"/>
      <stop offset="100%" stop-color="#A855F7"/>
    </linearGradient>
  </defs>
  <rect width="512" height="512" rx="112" fill="url(#bg)"/>
  <path d="M100 48H412Q484 48 484 120V294Q484 366 412 366H282L205 458L205 366H100Q28 366 28 294V120Q28 48 100 48Z" fill="url(#g)"/>
  <path d="M256 262C256 262 154 196 154 136C154 101 178 76 210 92C232 102 246 118 256 132C266 118 280 102 302 92C334 76 358 101 358 136C358 196 256 262 256 262Z" fill="white" opacity="0.95"/>
</svg>
