<svg xmlns="http://www.w3.org/2000/svg" viewBox="0 0 1200 630">
  <defs>
    <linearGradient id="bg" x1="0" y1="0" x2="1200" y2="630" gradientUnits="userSpaceOnUse">
      <stop offset="0%" stop-color="#0A0515"/>
      <stop offset="50%" stop-color="#1A0A2E"/>
      <stop offset="100%" stop-color="#0D0720"/>
    </linearGradient>
    <linearGradient id="accent" x1="0" y1="0" x2="400" y2="200" gradientUnits="userSpaceOnUse">
      <stop offset="0%" stop-color="#FF006E"/>
      <stop offset="100%" stop-color="#A855F7"/>
    </linearGradient>
    <radialGradient id="orb1" cx="75%" cy="20%" r="40%">
      <stop offset="0%" stop-color="#FF006E" stop-opacity="0.18"/>
      <stop offset="100%" stop-color="#FF006E" stop-opacity="0"/>
    </radialGradient>
    <radialGradient id="orb2" cx="15%" cy="80%" r="35%">
      <stop offset="0%" stop-color="#A855F7" stop-opacity="0.2"/>
      <stop offset="100%" stop-color="#A855F7" stop-opacity="0"/>
    </radialGradient>
  </defs>

  <!-- Background -->
  <rect width="1200" height="630" fill="url(#bg)"/>
  <rect width="1200" height="630" fill="url(#orb1)"/>
  <rect width="1200" height="630" fill="url(#orb2)"/>

  <!-- Logo mark -->
  <g transform="translate(480, 120)">
    <path d="M20 6H100Q124 6 124 30V74Q124 98 100 98H68L50 118L50 98H20Q-4 98 -4 74V30Q-4 6 20 6Z" fill="url(#accent)"/>
    <path d="M60 66C60 66 34 50 34 36C34 28 40 22 48 26C53 28.5 57 33 60 37C63 33 67 28.5 72 26C80 22 86 28 86 36C86 50 60 66 60 66Z" fill="white" opacity="0.95"/>
  </g>

  <!-- Wordmark -->
  <text x="600" y="270" font-family="Georgia, serif" font-size="88" font-weight="900" text-anchor="middle" fill="url(#accent)" letter-spacing="-2">Wingman</text>

  <!-- Tagline -->
  <text x="600" y="340" font-family="Georgia, serif" font-size="32" font-weight="400" text-anchor="middle" fill="rgba(255,255,255,0.65)" letter-spacing="1">Find the words. Win the heart.</text>

  <!-- Pills -->
  <rect x="295" y="390" width="170" height="40" rx="20" fill="rgba(255,0,110,0.15)" stroke="rgba(255,0,110,0.35)" stroke-width="1"/>
  <text x="380" y="415" font-family="Arial, sans-serif" font-size="15" text-anchor="middle" fill="#FF6B9D">📸 Analyze Chats</text>

  <rect x="480" y="390" width="160" height="40" rx="20" fill="rgba(168,85,247,0.15)" stroke="rgba(168,85,247,0.35)" stroke-width="1"/>
  <text x="560" y="415" font-family="Arial, sans-serif" font-size="15" text-anchor="middle" fill="#C084FC">🧠 Decode Anyone</text>

  <rect x="655" y="390" width="180" height="40" rx="20" fill="rgba(255,212,0,0.1)" stroke="rgba(255,212,0,0.35)" stroke-width="1"/>
  <text x="745" y="415" font-family="Arial, sans-serif" font-size="15" text-anchor="middle" fill="#FFD60A">⚡ Perfect Replies</text>

  <!-- Footer -->
  <text x="600" y="556" font-family="Arial, sans-serif" font-size="17" text-anchor="middle" fill="rgba(255,255,255,0.3)">wingman-six-beta.vercel.app · Free to try · No credit card needed</text>
</svg>
